<?xml version="1.0" standalone="no"?>
<!DOCTYPE svg PUBLIC "-//W3C//DTD SVG 20010904//EN"
 "http://www.w3.org/TR/2001/REC-SVG-20010904/DTD/svg10.dtd">
<svg version="1.0" xmlns="http://www.w3.org/2000/svg"
 width="16.000000pt" height="16.000000pt" viewBox="0 0 16.000000 16.000000"
 preserveAspectRatio="xMidYMid meet">
<metadata>
Created by potrace 1.11, written by Peter Selinger 2001-2013
</metadata>
<g transform="translate(0.000000,16.000000) scale(0.006154,-0.006154)"
fill="#000000" stroke="none">
<path d="M0 1300 l0 -1300 1300 0 1300 0 0 1300 0 1300 -1300 0 -1300 0 0
-1300z m945 986 c90 -24 217 -100 307 -184 l48 -44 52 47 c182 165 372 229
488 165 110 -62 154 -237 115 -455 -23 -126 -25 -120 53 -145 161 -53 308
-155 351 -243 26 -55 27 -137 2 -192 -39 -86 -201 -199 -361 -250 -30 -10 -58
-19 -61 -21 -4 -2 -1 -32 7 -66 21 -97 28 -245 15 -313 -31 -166 -140 -248
-288 -217 -94 20 -215 89 -316 182 l-57 52 -54 -50 c-78 -74 -199 -149 -279
-173 -167 -51 -286 19 -323 189 -18 88 -17 165 4 290 10 57 16 105 13 106 -4
2 -31 11 -61 21 -30 10 -85 33 -122 51 -212 103 -289 218 -247 368 24 87 189
210 349 261 93 30 90 25 74 97 -21 98 -28 236 -15 303 15 79 55 159 93 186 67
48 128 58 213 35z"/>
<path d="M814 2191 c-31 -14 -47 -30 -65 -67 -21 -44 -24 -61 -23 -164 1 -63
8 -142 16 -175 17 -70 2 -67 184 -40 l122 18 92 116 93 116 -54 48 c-146 130
-282 186 -365 148z"/>
<path d="M1670 2194 c-78 -21 -212 -106 -279 -178 l-24 -25 50 -58 c27 -32 68
-83 91 -114 l42 -55 122 -19 c183 -27 170 -29 186 35 7 30 14 109 15 175 2
108 0 125 -22 169 -18 37 -34 53 -65 67 -48 22 -46 22 -116 3z"/>
<path d="M1236 1851 c-31 -37 -56 -71 -56 -75 0 -3 54 -6 120 -6 66 0 120 4
120 8 0 11 -110 142 -120 142 -4 0 -33 -31 -64 -69z"/>
<path d="M1109 1670 c-36 -21 -199 -305 -199 -346 0 -20 60 -132 136 -255 l55
-89 199 0 199 0 57 93 c87 140 134 229 134 256 0 42 -164 322 -200 341 -24 13
-360 12 -381 0z m268 -165 c80 -34 117 -97 111 -190 -7 -107 -76 -175 -179
-175 -91 0 -145 31 -183 107 -30 60 -15 164 32 217 45 51 149 70 219 41z"/>
<path d="M915 1654 c-117 -23 -125 -26 -124 -42 1 -25 53 -154 62 -155 5 -1
20 18 34 43 14 25 40 71 59 103 36 62 35 64 -31 51z"/>
<path d="M1630 1655 c0 -18 114 -205 121 -198 10 10 59 141 59 158 0 13 -50
27 -137 40 -24 4 -43 4 -43 0z"/>
<path d="M605 1576 c-236 -91 -335 -199 -281 -305 17 -32 75 -87 127 -119 47
-28 170 -79 212 -87 33 -6 33 -6 51 50 10 32 33 93 51 136 l34 78 -34 79 c-18
43 -41 104 -51 135 -20 65 -23 66 -109 33z"/>
<path d="M1886 1543 c-10 -31 -33 -92 -51 -135 l-34 -79 34 -78 c18 -43 41
-104 51 -136 18 -56 18 -56 51 -50 42 8 165 59 212 87 232 143 174 300 -157
424 -34 13 -68 24 -75 24 -8 0 -21 -25 -31 -57z"/>
<path d="M841 1188 c-5 -13 -19 -47 -30 -77 -12 -30 -21 -61 -19 -69 3 -16 98
-40 161 -41 l28 -1 -19 28 c-10 15 -38 62 -61 105 -23 42 -44 77 -47 77 -2 0
-8 -10 -13 -22z"/>
<path d="M1686 1109 c-31 -56 -55 -104 -52 -107 6 -5 154 17 173 27 8 4 3 29
-19 86 -17 44 -34 84 -38 88 -4 4 -33 -38 -64 -94z"/>
<path d="M756 928 c-20 -62 -30 -140 -30 -233 0 -125 20 -189 70 -222 44 -28
126 -23 199 14 66 34 164 105 209 151 l28 30 -54 64 c-29 34 -70 87 -91 116
-33 44 -43 52 -72 52 -29 0 -176 22 -233 35 -13 3 -24 0 -26 -7z"/>
<path d="M1725 919 c-55 -10 -116 -18 -135 -19 -31 0 -41 -7 -75 -52 -22 -29
-64 -81 -94 -116 l-53 -64 28 -30 c45 -46 143 -117 209 -151 44 -22 75 -30
115 -31 70 -1 105 20 133 82 18 40 21 64 20 162 -1 113 -20 232 -39 236 -5 1
-54 -7 -109 -17z"/>
<path d="M1180 879 c0 -10 111 -139 120 -139 9 0 120 129 120 139 0 4 -54 6
-120 6 -66 0 -120 -2 -120 -6z"/>
</g>
</svg>
